<svg width="324" height="67" viewBox="0 0 324 67" fill="none" xmlns="http://www.w3.org/2000/svg">
<g filter="url(#filter0_d)">
<path d="M50.9375 58H38.6719L16.6016 21.3984V58H4.33594V1.125H16.6016L38.7109 37.7656V1.125H50.9375V58ZM107.93 30.7344C107.93 36.5417 106.901 41.5417 104.844 45.7344C102.786 49.9271 99.9219 53.1562 96.25 55.4219C92.6042 57.6615 88.3984 58.7812 83.6328 58.7812C78.8411 58.7812 74.5964 57.6615 70.8984 55.4219C67.2266 53.1562 64.349 49.9271 62.2656 45.7344C60.1823 41.5417 59.1406 36.5417 59.1406 30.7344V28.4297C59.1406 22.6224 60.1693 17.6224 62.2266 13.4297C64.3099 9.21094 67.1875 5.98177 70.8594 3.74219C74.5312 1.47656 78.763 0.34375 83.5547 0.34375C88.3203 0.34375 92.5391 1.47656 96.2109 3.74219C99.8828 5.98177 102.747 9.21094 104.805 13.4297C106.888 17.6224 107.93 22.6224 107.93 28.4297V30.7344ZM95.5469 28.3516C95.5469 22.4922 94.4922 18.0521 92.3828 15.0312C90.2995 11.9844 87.3568 10.4609 83.5547 10.4609C79.7005 10.4609 76.7448 11.9844 74.6875 15.0312C72.6302 18.0521 71.6016 22.4922 71.6016 28.3516V30.7344C71.6016 36.5417 72.6432 40.9948 74.7266 44.0938C76.8099 47.1667 79.7786 48.7031 83.6328 48.7031C87.4349 48.7031 90.3646 47.1667 92.4219 44.0938C94.5052 40.9948 95.5469 36.5417 95.5469 30.7344V28.3516ZM139.844 58H127.578V11.0469H110.547V1.125H157.109V11.0469H139.844V58ZM175.859 58H163.555V1.125H200.859V11.0469H175.859V25.1094H198.164V34.9922H175.859V58ZM244.297 58H207.383V1.125H219.648V48.1172H244.297V58ZM263.867 58H251.602V1.125H263.867V58ZM295.039 20.3828L305.273 1.125H319.375L303.008 29.3281L319.766 58H305.547L295.039 38.3906L284.492 58H270.273L287.07 29.3281L270.664 1.125H284.766L295.039 20.3828Z" fill="#E50914"/>
</g>
<defs>
<filter id="filter0_d" x="0.335938" y="0.34375" width="323.43" height="66.4375" filterUnits="userSpaceOnUse" color-interpolation-filters="sRGB">
<feFlood flood-opacity="0" result="BackgroundImageFix"/>
<feColorMatrix in="SourceAlpha" type="matrix" values="0 0 0 0 0 0 0 0 0 0 0 0 0 0 0 0 0 0 127 0"/>
<feOffset dy="4"/>
<feGaussianBlur stdDeviation="2"/>
<feColorMatrix type="matrix" values="0 0 0 0 0 0 0 0 0 0 0 0 0 0 0 0 0 0 0.25 0"/>
<feBlend mode="normal" in2="BackgroundImageFix" result="effect1_dropShadow"/>
<feBlend mode="normal" in="SourceGraphic" in2="effect1_dropShadow" result="shape"/>
</filter>
</defs>
</svg>
